<svg xmlns="http://www.w3.org/2000/svg" width="38.499" height="43.999" viewBox="0 0 38.499 43.999">
  <path id="Icon_awesome-bell" data-name="Icon awesome-bell" d="M19.249,44a5.5,5.5,0,0,0,5.5-5.5H13.752A5.5,5.5,0,0,0,19.249,44ZM37.759,31.133c-1.66-1.784-4.767-4.468-4.767-13.259A13.571,13.571,0,0,0,22,4.541V2.75a2.748,2.748,0,1,0-5.5,0V4.541A13.571,13.571,0,0,0,5.507,17.874C5.507,26.666,2.4,29.349.74,31.133A2.685,2.685,0,0,0,0,33a2.752,2.752,0,0,0,2.759,2.75H35.74A2.752,2.752,0,0,0,38.5,33a2.683,2.683,0,0,0-.74-1.866Z" transform="translate(0)" fill="#fff"/>
</svg>
